<svg height='100px' width='100px'  fill="#000000" xmlns="http://www.w3.org/2000/svg" viewBox="0 0 64 64" x="0px" y="0px"><g><path d="M32,20.212a10.945,10.945,0,0,1,3,2.251,10.945,10.945,0,0,1,3-2.251V7a3,3,0,0,0-6,0Z"></path><path d="M24,19.426a10.8,10.8,0,0,1,6,0V12a3,3,0,0,0-6,0Z"></path><path d="M18,30a6.753,6.753,0,0,0,.086,1h1.5l4.707-4.707a1,1,0,0,1,1.63.322l4.16,9.984L34.1,28.553a1.042,1.042,0,0,1,1.79,0L38.917,34.6l4.16-9.984a1,1,0,0,1,1.791-.111L48.58,31h3.334A6.765,6.765,0,0,0,52,30a8.991,8.991,0,0,0-16.2-5.382,1.036,1.036,0,0,1-1.6,0A8.991,8.991,0,0,0,18,30Z"></path><path d="M23.915,51.527,27.652,60H50.261L54,47.85V33h-.533C50.532,41.924,36.26,52.323,35.585,52.811a1,1,0,0,1-1.17,0C33.74,52.323,19.468,41.924,16.533,33H12.372L23.849,51.4A.942.942,0,0,1,23.915,51.527Z"></path><path d="M10.405,29.837,11.126,31h4.942A8.3,8.3,0,0,1,16,30a10.944,10.944,0,0,1,.22-2.186l-.6-.933A3.031,3.031,0,0,0,13,25.34a3,3,0,0,0-2.6,4.5Z"></path><path d="M54,30a8.3,8.3,0,0,1-.068,1H54Z"></path><path d="M53.118,15.872A3,3,0,0,0,48,18v2.214A11,11,0,0,1,54,30V18A3.018,3.018,0,0,0,53.118,15.872Z"></path><path d="M47.132,32.5l-2.991-5.234L39.923,37.385a1,1,0,0,1-.889.615.989.989,0,0,1-.929-.553L35,31.236,30.9,39.447A1,1,0,0,1,30,40h-.034a1,1,0,0,1-.889-.615L24.651,28.763l-3.944,3.944A1,1,0,0,1,20,33H18.625C21.365,40.147,32.332,48.74,35,50.754,37.667,48.74,48.633,40.144,51.375,33H48A1,1,0,0,1,47.132,32.5Z"></path><path d="M40,19.424a10.8,10.8,0,0,1,6,0V12a3,3,0,0,0-6,0Z"></path><rect x="56" y="31" width="4" height="2"></rect><rect x="4" y="31" width="5" height="2"></rect></g></svg>