<svg height='100px' width='100px'  fill="#000000" xmlns="http://www.w3.org/2000/svg" data-name="Layer 1" viewBox="0 0 100 100" x="0px" y="0px"><title>All3</title><path d="M91,33.65V45.19a57.4,57.4,0,0,1-12.5,36A52.16,52.16,0,0,1,51.89,99.7a6.29,6.29,0,0,1-3.82,0C36.56,96.24,27.49,89.39,20.39,79.83A57.36,57.36,0,0,1,9.7,54.53,58.13,58.13,0,0,1,9,45.82C8.9,36.92,9,28,8.94,19.11a1.36,1.36,0,0,1,1-1.48Q29.54,9,49.1.22A2.1,2.1,0,0,1,51,.22q19.52,8.7,39.07,17.35a1.51,1.51,0,0,1,1,1.66Q91,26.45,91,33.65ZM50,50V90.57C68.78,85,80.41,65.57,81.83,50h-31a3.1,3.1,0,0,0-.85.08c0-.28.07-0.56,0.07-0.85V9.9c-0.35.12-.62,0.2-0.87,0.31Q34,17,18.88,23.66A1.15,1.15,0,0,0,18.15,25V48.9a7.27,7.27,0,0,0,.06,1.1h1.35Z"></path></svg>