<svg height='100px' width='100px'  fill="#000000" xmlns="http://www.w3.org/2000/svg" xmlns:xlink="http://www.w3.org/1999/xlink" version="1.1" x="0px" y="0px" viewBox="0 0 66 66" enable-background="new 0 0 66 66" xml:space="preserve"><g><g><path d="M44.3,59.1h-0.6c0,0,0-0.1,0-0.1l-1.3-4.1H23.6L22.3,59c0,0,0,0.1,0,0.1h-0.7c-2.7,0-4.8,2.2-4.8,4.8v0.6c0,0.6,0.5,1,1,1    h30.3c0.6,0,1-0.4,1-1v-0.6C49.2,61.2,47,59.1,44.3,59.1z"></path></g><g><path d="M57.9,11H39.6c-0.5-3.9-2.6-7.5-6-10.3c-0.4-0.3-0.9-0.3-1.3,0c-3.4,2.8-5.5,6.4-6,10.3H8.1c-2.6,0-4.8,2.1-4.8,4.8v32.3    c0,2.6,2.1,4.8,4.8,4.8h49.9c2.6,0,4.8-2.1,4.8-4.8V15.8C62.7,13.1,60.6,11,57.9,11z M33,8.8c1.6,0,2.8,1.3,2.8,2.8    c0,1.6-1.3,2.8-2.8,2.8c-1.6,0-2.8-1.3-2.8-2.8C30.2,10,31.4,8.8,33,8.8z M33,49.6c-1,0-1.8-0.8-1.8-1.8c0-1,0.8-1.8,1.8-1.8    c1,0,1.8,0.8,1.8,1.8C34.8,48.8,34,49.6,33,49.6z M60.7,42.7H55c0.1-0.3,0.2-0.7,0.2-1.1c0-1.1-0.6-2.2-1.6-2.7c0-0.2,0-0.4,0-0.5    c0-2-1.6-3.6-3.6-3.6c-1.1,0-2.1,0.5-2.7,1.3c-0.5-0.2-1-0.4-1.6-0.4c-1.6,0-3,1.1-3.5,2.6l-4.1,0c-0.4,1.5-1.5,3.1-2.6,4.4h-5.4    c-1.1-1.2-2.1-2.8-2.5-4.3l-4,0c-0.4-1.6-1.8-2.8-3.5-2.8c-0.6,0-1.1,0.1-1.6,0.4c-0.7-0.8-1.7-1.3-2.7-1.3c-2,0-3.6,1.6-3.6,3.6    c0,0.2,0,0.3,0,0.5c-1,0.5-1.6,1.6-1.6,2.7c0,0.4,0.1,0.8,0.2,1.1H5.3v-27c0-1.5,1.3-2.8,2.8-2.8h18.2v2.8c0,0.1-0.2,6.6-6.8,12.1    c-0.2,0.2-0.4,0.5-0.4,0.8v3.1c0,0.6,0.4,1,1,1h2.3v-3.9c0-2.7,2.2-4.9,4.9-4.9c2.7,0,4.9,2.2,4.9,4.9v3.9h1.8v-3.9    c0-2.7,2.2-4.9,4.9-4.9c2.6,0,4.9,2.1,4.9,4.9v3.9h2.2c0.5,0,1-0.4,1-1v-3.1c0-0.3-0.1-0.6-0.4-0.8c-6.5-5.5-6.8-12-6.8-12.1V13    h18.2c1.5,0,2.8,1.3,2.8,2.8V42.7z"></path></g><g><path d="M33,12.4c0.5,0,0.8-0.4,0.8-0.8s-0.4-0.8-0.8-0.8c-0.5,0-0.8,0.4-0.8,0.8S32.5,12.4,33,12.4z"></path></g><g><path d="M38.8,26c-1.6,0-2.9,1.3-2.9,2.9v5c0,0.6,0.4,1,1,1h0.8v0.9c0,0.6,0.5,1,1,1s1-0.4,1-1v-0.9h1c0.6,0,1-0.4,1-1v-5    C41.7,27.3,40.4,26,38.8,26z"></path></g><g><path d="M30.2,33.9v-5c0-1.6-1.3-2.9-2.9-2.9c-1.6,0-2.9,1.3-2.9,2.9v5c0,0.6,0.5,1,1,1h0.9v0.9c0,0.6,0.4,1,1,1c0.5,0,1-0.4,1-1    v-0.9h0.9C29.7,34.9,30.2,34.5,30.2,33.9z"></path></g><g><path d="M33,33.9c-1.9,0-3.4,1.5-3.4,3.4c0,1.6,2,4,2.7,4.7c0.2,0.2,0.5,0.3,0.8,0.3c0.3,0,0.5-0.1,0.7-0.3    c0.6-0.7,2.7-3.1,2.7-4.7C36.4,35.4,34.9,33.9,33,33.9z"></path></g></g></svg>
