<svg height='100px' width='100px'  fill="#000000" xmlns="http://www.w3.org/2000/svg" viewBox="0 0 64 64" x="0px" y="0px"><path d="M47.381,43.527a3.477,3.477,0,0,0,.724-4.08L36.475,16.186a5.014,5.014,0,0,1-1.763,2Z"></path><rect x="31" y="3" width="2" height="4"></rect><path d="M32,19a4.952,4.952,0,0,1-.84-.085L27.618,26h8.764l-3.543-7.085A4.94,4.94,0,0,1,32,19Z"></path><path d="M32,17a3,3,0,0,0,3-3V9H29v5A3,3,0,0,0,32,17Zm-.71-4.71A1.014,1.014,0,1,1,31,13,1.047,1.047,0,0,1,31.29,12.29Z"></path><path d="M38.618,16,49.9,38.553A5.475,5.475,0,0,1,47.447,45.9l-.894.447L37.382,28H26.618L17.447,46.342l-.894-.447a5.475,5.475,0,0,1-2.448-7.342L25.382,16H4V48H60V16Z"></path><rect x="4" y="50" width="56" height="2"></rect><path d="M16.619,43.527,29.287,18.189a5.019,5.019,0,0,1-1.762-2L15.9,39.447A3.477,3.477,0,0,0,16.619,43.527Z"></path><polygon points="28.693 54 26.443 60 37.557 60 35.307 54 28.693 54"></polygon></svg>